# xmcd
#
# Track frame offsets: 
#        150
#        14832
#        34540
#        54317
#        74377
#        95852
#        111510
#        124997
#        139182
#        153622
#        169637
#        187802
#        207965
#        218135
#        235072
#
# Disc length: 3676 seconds
#
# Revision: 1
# Processed by: cddbd v1.5.2PL0 Copyright (c) Steve Scherf et al.
# Submitted via: ExactAudioCopy v0.95b4
#
DISCID=dc0e5a0f
DTITLE=Vassar Clements - Livin' with the Blues
DYEAR=2004
DGENRE=Blues
TTITLE0=Cypress Grove
TTITLE1=Dirty Drawers
TTITLE2=Honey Babe Blues
TTITLE3=Mambo Boogie
TTITLE4=Phonograph Blues
TTITLE5=Green Onions
TTITLE6=Rube's Blues
TTITLE7=Dead Cats on the Line
TTITLE8=That's My Thing
TTITLE9=Keep Your Lamp Trimmed and Burning
TTITLE10=I Ain't Gonna Play No Second Fiddle
TTITLE11=Mama I'm All Out and Down
TTITLE12=Fiddlin' and Faddlin'
TTITLE13=Cool Drink of Water
TTITLE14=Don't Stand Behind a Mule
EXTD=Vassar Clements (1928-04-25/2005-08-16): fiddle\nFeaturing Elvin 
EXTD=Bishop, Bob Brozman, Norton Buffalo, Bobby Cochran, Ruth Davies, 
EXTD=Dave Mathews, Maria Muldaur, Charlie Musselwhite, Roy Rogers, Mar
EXTD=c Silber, and David Jacob-Strain.\nCD: Acoustic Disc ACD-58 (2004
EXTD=08-24), UPC 715949105821.
EXTT0=
EXTT1=
EXTT2=
EXTT3=
EXTT4=
EXTT5=
EXTT6=
EXTT7=
EXTT8=
EXTT9=
EXTT10=
EXTT11=
EXTT12=
EXTT13=
EXTT14=
PLAYORDER=
